<svg xmlns="http://www.w3.org/2000/svg" height="511pt" version="1.1" viewBox="-43 1 511 511.99925" width="511pt">
<g id="surface1">
<path d="M 318.304688 3.265625 C 316.367188 1.222656 313.714844 0 310.960938 0 L 146.246094 0 C 119.117188 0 96.472656 19.886719 91.984375 45.792969 C 69.140625 49.773438 51.1875 67.824219 47.210938 90.570312 C 20.796875 94.648438 0.5 117.597656 0.5 145.132812 L 0.5 456.617188 C 0.5 487.011719 25.078125 512 55.472656 512 L 279.039062 512 C 306.167969 512 328.710938 492.210938 333.300781 466.304688 C 356.65625 462.738281 375.21875 444.378906 379.195312 421.125 C 405.101562 416.636719 424.785156 393.996094 424.785156 366.761719 L 424.785156 119.535156 C 424.785156 116.882812 423.867188 114.332031 422.03125 112.394531 Z M 320.753906 36.003906 L 390.925781 109.132812 L 345.640625 109.132812 C 332.175781 109.132812 320.753906 98.320312 320.753906 84.855469 Z M 279.039062 491.601562 L 55.472656 491.601562 C 36.296875 491.601562 20.898438 475.792969 20.898438 456.617188 L 20.898438 145.136719 C 20.898438 129.222656 31.097656 115.761719 46.394531 111.683594 L 46.394531 411.742188 C 46.394531 442.136719 70.976562 467.125 101.367188 467.125 L 312.1875 467.125 C 307.800781 481.402344 294.644531 491.601562 279.039062 491.601562 Z M 324.9375 446.726562 L 101.367188 446.726562 C 82.296875 446.726562 66.792969 430.917969 66.792969 411.742188 L 66.792969 100.257812 C 66.792969 84.652344 76.992188 71.496094 91.269531 67.109375 L 91.269531 366.867188 C 91.269531 397.257812 115.851562 422.246094 146.246094 422.246094 L 358.082031 422.246094 C 353.699219 436.527344 340.539062 446.726562 324.9375 446.726562 Z M 369.8125 401.847656 L 146.246094 401.847656 C 127.171875 401.847656 111.671875 386.039062 111.671875 366.863281 L 111.671875 55.382812 C 111.671875 36.308594 127.070312 20.398438 146.246094 20.398438 L 300.355469 20.398438 L 300.355469 84.855469 C 300.355469 109.640625 320.855469 129.53125 345.640625 129.53125 L 404.386719 129.53125 L 404.386719 366.863281 C 404.386719 386.039062 388.988281 401.847656 369.8125 401.847656 Z M 369.8125 401.847656 " style=" stroke:none;fill-rule:nonzero;fill:rgb(0%,0%,0%);fill-opacity:1;" />
<path d="M 341.96875 336.574219 L 174.089844 336.574219 C 168.480469 336.574219 163.890625 341.164062 163.890625 346.773438 C 163.890625 352.382812 168.480469 356.972656 174.089844 356.972656 L 342.070312 356.972656 C 347.679688 356.972656 352.269531 352.382812 352.269531 346.773438 C 352.269531 341.164062 347.679688 336.574219 341.96875 336.574219 Z M 341.96875 336.574219 " style=" stroke:none;fill-rule:nonzero;fill:rgb(0%,0%,0%);fill-opacity:1;" />
<path d="M 258.027344 279.253906 C 243.648438 279.253906 231.917969 267.523438 231.917969 253.144531 C 231.917969 247.535156 227.328125 242.945312 221.71875 242.945312 C 216.109375 242.945312 211.519531 247.535156 211.519531 253.144531 C 211.519531 274.765625 226.308594 292.921875 246.300781 298.222656 L 246.300781 308.117188 C 246.300781 313.726562 250.890625 318.316406 256.5 318.316406 C 262.109375 318.316406 266.699219 313.726562 266.699219 308.117188 L 266.699219 298.9375 C 288.21875 294.859375 304.539062 275.886719 304.539062 253.246094 C 304.539062 227.542969 283.628906 206.738281 258.027344 206.738281 C 243.648438 206.738281 231.917969 195.007812 231.917969 180.628906 C 231.917969 166.246094 243.648438 154.519531 258.027344 154.519531 C 272.410156 154.519531 284.140625 166.246094 284.140625 180.628906 C 284.140625 186.238281 288.726562 190.828125 294.339844 190.828125 C 299.949219 190.828125 304.539062 186.238281 304.539062 180.628906 C 304.539062 157.882812 288.21875 139.015625 266.699219 134.933594 L 266.699219 127.488281 C 266.699219 121.878906 262.109375 117.289062 256.5 117.289062 C 250.890625 117.289062 246.300781 121.878906 246.300781 127.488281 L 246.300781 135.445312 C 226.308594 140.648438 211.519531 158.902344 211.519531 180.523438 C 211.519531 206.226562 232.429688 227.035156 258.027344 227.035156 C 272.410156 227.035156 284.140625 238.761719 284.140625 253.144531 C 284.140625 267.523438 272.410156 279.253906 258.027344 279.253906 Z M 258.027344 279.253906 " style=" stroke:none;fill-rule:nonzero;fill:rgb(0%,0%,0%);fill-opacity:1;" />
</g>
</svg>